<?xml version="1.0" encoding="utf-8"?>
<!-- Generator: Adobe Illustrator 22.0.0, SVG Export Plug-In . SVG Version: 6.00 Build 0)  -->
<svg version="1.1" id="Слой_1" xmlns="http://www.w3.org/2000/svg" xmlns:xlink="http://www.w3.org/1999/xlink" x="0px" y="0px"
	 viewBox="0 0 35.8 35.8" style="enable-background:new 0 0 35.8 35.8;" xml:space="preserve">
<style type="text/css">
	.st0{fill:none;stroke:#000000;stroke-miterlimit:10;}
</style>
<g>
	<path class="st0" d="M23.1,9.8H12.7c-1.7,0-3,1.3-3,3v10.4c0,1.7,1.3,3,3,3h10.4c1.7,0,3-1.3,3-3V12.8C26.1,11.1,24.7,9.8,23.1,9.8
		L23.1,9.8z"/>
	<path class="st0" d="M17.9,14.5c-1.9,0-3.4,1.5-3.4,3.4c0,1.9,1.5,3.4,3.4,3.4c1.9,0,3.4-1.5,3.4-3.4
		C21.3,16.1,19.8,14.5,17.9,14.5L17.9,14.5z M17.9,14.5"/>
	<path class="st0" d="M17.9,0.5C8.3,0.5,0.5,8.3,0.5,17.9c0,9.6,7.8,17.4,17.4,17.4s17.4-7.8,17.4-17.4C35.3,8.3,27.5,0.5,17.9,0.5
		L17.9,0.5z"/>
	<circle cx="22.8" cy="13.1" r="1.2"/>
</g>
</svg>
