<?xml version="1.0" encoding="utf-8"?>
<!-- Generator: Adobe Illustrator 22.0.0, SVG Export Plug-In . SVG Version: 6.00 Build 0)  -->
<svg version="1.1" id="Слой_1" xmlns="http://www.w3.org/2000/svg" xmlns:xlink="http://www.w3.org/1999/xlink" x="0px" y="0px"
	 viewBox="0 0 36 36" style="enable-background:new 0 0 36 36;" xml:space="preserve">
<style type="text/css">
	.st0{fill:none;stroke:#000000;stroke-miterlimit:10;}
	.st1{fill-rule:evenodd;clip-rule:evenodd;fill:none;stroke:#000000;stroke-miterlimit:10;}
</style>
<g>
	<path class="st0" d="M35.5,18c0,9.7-7.8,17.5-17.5,17.5S0.5,27.7,0.5,18C0.5,8.3,8.3,0.5,18,0.5S35.5,8.3,35.5,18L35.5,18z
		 M35.5,18"/>
	<path class="st1" d="M17.4,25.7h1.4c0,0,0.4,0,0.6-0.3c0.2-0.2,0.2-0.6,0.2-0.6s0-1.8,0.8-2.1c0.8-0.3,1.9,1.8,3.1,2.6
		c0.9,0.6,1.5,0.5,1.5,0.5l3.1,0c0,0,1.6-0.1,0.8-1.4c-0.1-0.1-0.4-0.9-2.3-2.6c-1.9-1.8-1.7-1.5,0.7-4.6c1.4-1.9,2-3,1.8-3.5
		c-0.2-0.5-1.2-0.3-1.2-0.3l-3.5,0c0,0-0.3,0-0.4,0.1c-0.2,0.1-0.3,0.4-0.3,0.4s-0.5,1.5-1.3,2.7C20.8,19,20.2,19.1,20,19
		c-0.6-0.4-0.4-1.5-0.4-2.3c0-2.5,0.4-3.6-0.7-3.9c-0.4-0.1-0.7-0.2-1.6-0.2c-1.2,0-2.3,0-2.9,0.3c-0.4,0.2-0.7,0.6-0.5,0.6
		c0.2,0,0.7,0.1,1,0.5c0.4,0.5,0.3,1.6,0.3,1.6s0.2,3-0.5,3.4c-0.5,0.3-1.1-0.3-2.5-2.6c-0.7-1.2-1.2-2.6-1.2-2.6s-0.1-0.3-0.3-0.4
		c-0.2-0.2-0.5-0.2-0.5-0.2l-3.3,0c0,0-0.5,0-0.7,0.2c-0.2,0.2,0,0.6,0,0.6s2.6,6,5.5,9C14.3,25.9,17.4,25.7,17.4,25.7L17.4,25.7z
		 M17.4,25.7"/>
</g>
</svg>
