<?xml version="1.0" encoding="utf-8"?>
<!-- Generator: Adobe Illustrator 22.0.0, SVG Export Plug-In . SVG Version: 6.00 Build 0)  -->
<svg version="1.1" id="Слой_1" xmlns="http://www.w3.org/2000/svg" xmlns:xlink="http://www.w3.org/1999/xlink" x="0px" y="0px"
	 viewBox="0 0 36 36" style="enable-background:new 0 0 36 36;" xml:space="preserve">
<style type="text/css">
	.st0{fill:none;stroke:#000000;stroke-miterlimit:10;}
</style>
<path class="st0" d="M18,0.5L18,0.5L18,0.5C8.3,0.5,0.5,8.3,0.5,18c0,3.8,1.2,7.4,3.3,10.3l-2.2,6.5l6.7-2.2
	c2.8,1.8,6.1,2.9,9.6,2.9c9.6,0,17.5-7.9,17.5-17.5S27.7,0.5,18,0.5z M28.2,25.2c-0.4,1.2-2.1,2.2-3.4,2.5c-0.9,0.2-2.1,0.4-6.1-1.3
	c-5.1-2.1-8.5-7.4-8.7-7.7c-0.2-0.3-2.1-2.8-2.1-5.3s1.3-3.7,1.8-4.3c0.4-0.4,1.1-0.6,1.8-0.6c0.2,0,0.4,0,0.6,0
	c0.5,0,0.8,0.1,1.1,0.9c0.4,1,1.5,3.5,1.6,3.8c0.1,0.3,0.2,0.6,0.1,0.9c-0.2,0.3-0.3,0.5-0.6,0.8c-0.3,0.3-0.5,0.5-0.8,0.8
	c-0.2,0.3-0.5,0.6-0.2,1.1c0.3,0.5,1.3,2.2,2.8,3.5c2,1.7,3.5,2.3,4.1,2.5c0.4,0.2,0.9,0.1,1.2-0.2c0.4-0.4,0.9-1.1,1.4-1.8
	c0.4-0.5,0.8-0.6,1.3-0.4c0.5,0.2,3,1.4,3.5,1.7c0.5,0.3,0.9,0.4,1,0.6C28.6,23,28.6,24,28.2,25.2z"/>
</svg>
