<?xml version="1.0" encoding="utf-8"?>
<!-- Generator: Adobe Illustrator 22.0.0, SVG Export Plug-In . SVG Version: 6.00 Build 0)  -->
<svg version="1.1" id="Shape_1_xA0_Изображение_1_"
	 xmlns="http://www.w3.org/2000/svg" xmlns:xlink="http://www.w3.org/1999/xlink" x="0px" y="0px" viewBox="0 0 352 352"
	 style="enable-background:new 0 0 352 352;" xml:space="preserve" opacity="0.7" width="48px" height="48px">
<style type="text/css">
	.st0{fill:#FFFFFF;}
	.st1{fill-rule:evenodd;clip-rule:evenodd;fill:#FFFFFF;}
	.st2{fill-rule:evenodd;clip-rule:evenodd;}
</style>
<g>
	<g>
		<path d="M303,152.9c0.1,82.6-67.5,150.2-150.1,150.1C70.5,302.9,3.1,235.5,3,153.1C2.9,70.5,70.5,3,153.1,3
			C235.5,3,302.9,70.5,303,152.9z M271.9,153c0.2-65-53.1-118.6-118.3-118.9C88.3,33.8,34.5,87,34.1,152
			C33.8,217.6,86.9,271.6,152,271.9C218.2,272.1,271.6,219.1,271.9,153z"/>
	</g>
</g>
<g id="Rectangle_1">
	<g>
		<path class="st1" d="M264,263.9l66.8,66.9L264,263.9z"/>
	</g>
	<g>
		<polygon points="264,242.7 242.8,263.9 330.8,352 352,330.8 264,242.7 		"/>
	</g>
</g>
<g id="Rectangle_2">
	<g>
		<rect x="137" y="92" class="st2" width="30" height="120"/>
	</g>
</g>
<g id="Rectangle_2_copy">
	<g>
		<rect x="92" y="137" class="st2" width="120" height="30"/>
	</g>
</g>
</svg>
